<?xml version="1.0" encoding="UTF-8" standalone="no"?>
<!-- Created with Inkscape (http://www.inkscape.org/) -->

<svg
   width="512"
   height="512"
   viewBox="0 0 135.46666 135.46667"
   version="1.1"
   id="svg5"
   inkscape:version="1.1.1 (3bf5ae0d25, 2021-09-20, custom)"
   sodipodi:docname="icon.svg"
   xmlns:inkscape="http://www.inkscape.org/namespaces/inkscape"
   xmlns:sodipodi="http://sodipodi.sourceforge.net/DTD/sodipodi-0.dtd"
   xmlns="http://www.w3.org/2000/svg"
   xmlns:svg="http://www.w3.org/2000/svg">
  <sodipodi:namedview
     id="namedview7"
     pagecolor="#ffffff"
     bordercolor="#666666"
     borderopacity="1.0"
     inkscape:pageshadow="2"
     inkscape:pageopacity="0.0"
     inkscape:pagecheckerboard="0"
     inkscape:document-units="mm"
     showgrid="false"
     units="px"
     width="512px"
     inkscape:zoom="0.56569164"
     inkscape:cx="255.43952"
     inkscape:cy="279.30411"
     inkscape:window-width="1584"
     inkscape:window-height="957"
     inkscape:window-x="0"
     inkscape:window-y="45"
     inkscape:window-maximized="1"
     inkscape:current-layer="layer1" />
  <defs
     id="defs2" />
  <g
     inkscape:label="Layer 1"
     inkscape:groupmode="layer"
     id="layer1">
    <path
       d="m 67.733336,8.2470129 c -32.853646,0 -59.4863234,26.6331431 -59.4863234,59.4863221 0,32.853185 26.6326774,59.486315 59.4863234,59.486315 32.852714,0 59.486314,-26.63313 59.486314,-59.486315 0,-32.853179 -26.6336,-59.4863221 -59.486314,-59.4863221 z M 104.53817,104.53817 c -1.5011,1.50109 -3.07888,2.89809 -4.722656,4.19053 l -5.447643,-7.49806 c -0.603693,-0.83048 -1.766,-1.01544 -2.596484,-0.4113 -0.830486,0.6037 -1.014986,1.76647 -0.411294,2.59696 l 5.451365,7.50316 c -8.018571,5.42348 -17.381161,8.48518 -27.21964,8.82815 v -9.25849 c 0,-1.02659 -0.832343,-1.85894 -1.858947,-1.85894 -1.026605,0 -1.858947,0.83235 -1.858947,1.85894 v 9.25849 c -9.839411,-0.34297 -19.20107,-3.40467 -27.219641,-8.82815 l 5.4509,-7.50316 c 0.603693,-0.83049 0.419192,-1.99326 -0.411292,-2.59696 -0.830486,-0.60321 -1.993257,-0.41825 -2.59695,0.4113 l -5.446717,7.49759 c -1.643774,-1.29149 -3.222021,-2.6885 -4.722655,-4.19006 C 25.470627,99.081228 21.377225,92.624649 18.812342,85.58295 l 8.831859,-2.86929 c 0.976413,-0.317871 1.510395,-1.365857 1.192981,-2.342734 -0.317416,-0.976877 -1.366327,-1.510395 -2.342274,-1.193444 l -8.827213,2.868355 c -1.30684,-4.596713 -1.984891,-9.401627 -1.984891,-14.312502 0,-4.910875 0.678051,-9.715789 1.984891,-14.312502 l 8.827213,2.868357 c 0.190542,0.06181 0.384337,0.09109 0.574415,0.09109 0.784474,0 1.512253,-0.499592 1.767859,-1.284997 0.317414,-0.976877 -0.217497,-2.024858 -1.193445,-2.342738 l -8.831395,-2.869286 c 2.564883,-7.041693 6.658285,-13.498284 12.115227,-18.955223 1.500634,-1.5011 3.078881,-2.8981 4.722191,-4.190068 l 5.44811,7.497599 c 0.363889,0.500523 0.930403,0.765888 1.505284,0.765888 0.378759,0 0.761238,-0.115261 1.090737,-0.35506 0.831413,-0.603694 1.014985,-1.766464 0.411292,-2.59695 l -5.4509,-7.503179 c 8.019035,-5.423481 17.380695,-8.485168 27.220104,-8.828142 v 9.259417 c 0,1.026603 0.832345,1.858947 1.858949,1.858947 1.026603,0 1.858947,-0.832344 1.858947,-1.858947 v -9.258488 c 9.83848,0.342975 19.20014,3.404661 27.218709,8.828142 l -5.450899,7.503177 c -0.603692,0.830484 -0.419192,1.993257 0.411294,2.596949 0.329962,0.239804 0.712441,0.355059 1.091201,0.355059 0.574414,0 1.14186,-0.26583 1.505747,-0.765886 l 5.447179,-7.498066 c 1.643776,1.29197 3.221556,2.688968 4.722656,4.190533 5.45694,5.456942 9.5508,11.913531 12.11476,18.954759 l -8.83186,2.869751 c -0.97595,0.31788 -1.5104,1.365861 -1.19345,2.342737 0.25607,0.785406 0.98385,1.284998 1.76833,1.284998 0.19008,0 0.38387,-0.02928 0.57441,-0.09109 l 8.82768,-2.868356 c 1.30684,4.596711 1.98536,9.401626 1.98536,14.312501 0,4.910874 -0.67898,9.715791 -1.98536,14.312502 l -8.82768,-2.868356 c -0.97641,-0.31788 -2.02486,0.217032 -2.34274,1.193445 -0.31695,0.976876 0.21797,2.024868 1.19391,2.342739 l 8.83186,2.86929 c -2.56442,7.041225 -6.65782,13.497347 -12.11522,18.954289 z M 91.117036,39.93231 c -0.280701,0.06042 -6.958505,1.505748 -14.721005,3.957235 -10.773531,3.401874 -18.110332,7.001725 -21.807313,10.699172 -3.511553,3.511552 -5.445323,8.179835 -5.445323,13.144618 0,4.964785 1.933305,9.633531 5.444857,13.144618 3.511553,3.511096 8.17937,5.444864 13.145084,5.444864 4.965248,0 9.63353,-1.933768 13.144617,-5.445327 3.697446,-3.696983 7.297299,-11.033785 10.699173,-21.807316 2.450558,-7.762499 3.896819,-14.441233 3.956769,-14.721934 l 1.210175,-5.62657 z m -23.3837,38.95471 c -6.160553,0 -11.153685,-4.993598 -11.153685,-11.154614 0,-6.159158 4.994061,-11.152757 11.153685,-11.152757 6.160087,0 11.153684,4.993599 11.153684,11.153686 0,6.159624 -4.994062,11.153685 -11.153684,11.153685 z"
       id="path17358"
       style="stroke-width:0.464736;fill:#0000ff" />
  </g>
</svg>
